<?xml version="1.0" encoding="UTF-8" standalone="no"?>
<svg
   xmlns:dc="http://purl.org/dc/elements/1.1/"
   xmlns:cc="http://creativecommons.org/ns#"
   xmlns:rdf="http://www.w3.org/1999/02/22-rdf-syntax-ns#"
   xmlns:svg="http://www.w3.org/2000/svg"
   xmlns="http://www.w3.org/2000/svg"
   xmlns:sodipodi="http://sodipodi.sourceforge.net/DTD/sodipodi-0.dtd"
   xmlns:inkscape="http://www.inkscape.org/namespaces/inkscape"
   id="svg8"
   version="1.1"
   viewBox="0 0 47.360418 11.641667"
   height="44"
   width="179"
   sodipodi:docname="logo.svg"
   inkscape:version="0.92.3 (2405546, 2018-03-11)">
  <sodipodi:namedview
     pagecolor="#ffffff"
     bordercolor="#666666"
     borderopacity="1"
     objecttolerance="10"
     gridtolerance="10"
     guidetolerance="10"
     inkscape:pageopacity="0"
     inkscape:pageshadow="2"
     inkscape:window-width="1920"
     inkscape:window-height="1017"
     id="namedview11"
     showgrid="false"
     fit-margin-top="0"
     fit-margin-left="0"
     fit-margin-right="0"
     fit-margin-bottom="0"
     inkscape:zoom="5.1265839"
     inkscape:cx="126.53289"
     inkscape:cy="50.835227"
     inkscape:window-x="1912"
     inkscape:window-y="-8"
     inkscape:window-maximized="1"
     inkscape:current-layer="svg8"
     units="px" />
  <defs
     id="defs2" />
  <metadata
     id="metadata5">
    <rdf:RDF>
      <cc:Work
         rdf:about="">
        <dc:format>image/svg+xml</dc:format>
        <dc:type
           rdf:resource="http://purl.org/dc/dcmitype/StillImage" />
        <dc:title></dc:title>
      </cc:Work>
    </rdf:RDF>
  </metadata>
  <path
     style="fill:#37abc8;fill-opacity:1;stroke:none;stroke-width:1.40104127;stroke-linejoin:miter;stroke-miterlimit:4;stroke-dasharray:none;stroke-opacity:1;paint-order:markers stroke fill"
     d="m 17.021563,5.9988829 c -0.20018,0.068964 -0.176547,0.091416 -0.291433,0.3799179 -0.470336,1.1079027 -1.494632,1.515489 -2.069485,1.515489 -0.282203,0 -0.64802,-0.1253929 -0.783895,-0.3866905 -0.05225,-0.094067 -0.07318,-0.2090588 -0.06271,-0.3344827 2.23671,-0.4180756 2.748858,-1.3064968 2.853375,-1.8081887 0.0418,-0.2090378 0.03138,-0.4180538 -0.04178,-0.5957363 -0.0627,-0.1881344 -0.177704,-0.3449337 -0.334482,-0.4494519 -0.06762,-0.045075 -0.280991,-0.1657022 -0.605244,-0.1679179 -0.126882,-8.69e-4 -0.27074,0.016381 -0.429476,0.063416 -0.501694,0.1567782 -0.982507,0.5539502 -1.442391,1.1915165 -0.365815,0.5016912 -0.595747,0.9720477 -0.689814,1.3796726 -0.09407,0.4076243 -0.0627,0.7629738 0.09408,1.0660791 0.292654,0.5748562 0.961558,0.7838919 1.442348,0.7838919 0.470334,0 1.013864,-0.167222 1.47375,-0.4598758 0.144548,-0.089359 0.280496,-0.189306 0.407363,-0.2989806 0.625822,-0.4569124 0.761066,-1.9755526 0.479806,-1.8786587 z M 2.3088035,10.489727 c 0.02534,-0.03625 0.04968,-0.07242 0.07223,-0.107859 0.365817,-0.5539509 0.627121,-1.2960415 0.731641,-2.0381267 0.03135,-0.2508457 0.05225,-0.501686 0.05225,-0.7525324 0.177681,0.1776825 0.376246,0.2821766 0.595735,0.3030806 0.275449,0.023952 0.557816,-0.075822 0.858779,-0.312632 0.008,0.5068276 0.116332,0.7014676 0.200148,0.8039107 0.09407,0.1254236 0.229941,0.1881109 0.376268,0.1881109 0.146326,0 0.271746,-0.073173 0.376266,-0.2090463 0.0418,-0.052259 0.08363,-0.1254025 0.125436,-0.2194707 0.08362,-0.1567789 0.177686,-0.3658252 0.292657,-0.6166718 0.240399,-0.5225951 0.543471,-1.1810633 0.877932,-1.7141105 0.470334,-0.7316342 0.742086,-0.7943593 0.81525,-0.7943593 0.32401,2e-7 0.51217,0.1463433 0.51217,0.418093 0,0.1776825 -0.09407,0.3658006 -0.261296,0.5121269 -0.146329,0.1358746 -0.428541,0.2926562 -0.909329,0.2926562 -0.114966,0 -0.219478,0.052288 -0.282188,0.1359037 -0.07317,0.094068 -0.104514,0.1985773 -0.08361,0.3135479 0.146328,0.7002784 0.303077,1.1183306 0.533018,1.3796282 0.292655,0.3449133 0.668946,0.3972019 1.003405,0.3972019 0.276505,0 0.556605,-0.1193511 0.833962,-0.3556368 -0.04859,0.1988314 -0.09578,0.3847016 -0.140396,0.5542149 -0.188133,0.5539516 -0.376275,1.191522 -0.585313,1.8917986 -0.05226,0.198586 0.05228,0.397163 0.240406,0.459875 0.0418,0.01042 0.08363,0.02088 0.125436,0.02088 0.146328,0 0.282197,-0.09404 0.344907,-0.240361 0.01053,-0.03135 0.240382,-0.658487 0.543487,-1.7559377 0.01053,-0.062712 0.03136,-0.1149769 0.04183,-0.1776876 0.07317,-0.2090378 0.146335,-0.4076163 0.209047,-0.6062027 0.01053,0.020903 0.03134,0.031331 0.04178,0.041781 0.0418,0.031357 0.2508695,0.1881431 0.6271385,0.209047 0.470337,0.041807 0.971991,-0.1149632 1.515491,-0.4598767 0.533049,-0.3344594 0.919791,-0.7420705 1.149734,-1.2124059 0.209036,-0.4180767 0.282182,-0.85705 0.219469,-1.2751266 -0.05226,-0.2717419 -0.156771,-0.5226073 -0.313551,-0.7107413 -0.16723,-0.2090391 -0.39717,-0.3553656 -0.637564,-0.4076253 -0.438981,-0.1045195 -0.857058,-0.052258 -1.222876,0.1463282 -0.303106,0.1672302 -0.585312,0.4389815 -0.84661,0.8152503 0.0418,-0.3135578 0.09409,-0.627118 0.135905,-0.9615785 0.03136,-0.1985865 -0.114979,-0.3867375 -0.324017,-0.4180929 -0.1985855,-0.020903 -0.3867205,0.114977 -0.4076245,0.3240154 -0.09269,0.6680518 -0.198262,1.295829 -0.30766,1.87239 -0.01307,0.017023 -0.179287,0.4095928 -0.448666,0.8032996 -0.292654,0.4389798 -0.595729,0.7002817 -0.794315,0.7002817 -0.27175,0 -0.365838,-0.052246 -0.449451,-0.1358607 -0.09407,-0.1149699 -0.177684,-0.3240058 -0.261299,-0.6375629 0.449432,-0.083616 0.752553,-0.271754 0.940687,-0.4389844 0.32401,-0.2926537 0.512127,-0.6793758 0.512127,-1.076548 0,-0.3240092 -0.114955,-0.6062129 -0.334438,-0.8152505 -0.229944,-0.2299421 -0.543527,-0.3449068 -0.919796,-0.3449068 -0.282203,0 -0.564394,0.1254205 -0.836144,0.3762661 -0.198585,0.1881343 -0.397165,0.4389899 -0.606203,0.7629994 -0.324009,0.5225961 -0.616667,1.1287821 -0.846609,1.6409257 0.03136,-0.3135571 0.08361,-0.6793597 0.167219,-1.06608 0.09407,-0.4285291 0.229943,-0.8884288 0.407625,-1.3483127 0.407625,-0.1254233 0.846608,-0.3867154 1.222875,-0.7525326 0.449434,-0.4285277 0.783897,-0.9511259 0.96158,-1.4841727 0.146327,-0.4285283 0.229969,-0.8047702 0.250873,-1.0869719 0.01053,-0.1672304 -3e-6,-0.3031211 -0.03136,-0.41809271 C 8.3105475,0.68249474 8.1850835,0.57797797 8.0910165,0.52571842 7.9655935,0.46300795 7.7252105,0.40030897 7.4012035,0.65115535 7.2548755,0.76612659 7.0876345,0.95423511 6.8995005,1.2155326 c -0.386722,0.5539514 -0.825701,1.337859 -1.191518,2.1322039 -0.292653,0.6271141 -0.679365,1.5677663 -0.867502,2.4875347 -0.03969,0.1851851 -0.0735,0.3643562 -0.10271,0.5374234 -0.0016,0.0021 -0.0035,0.00396 -0.0051,0.00609 C 4.5027285,6.6923434 4.2936645,6.9118173 4.1055295,7.03724 4.0010445,7.120859 3.8965575,7.1626642 3.8338465,7.1522121 3.7502125,7.1417611 3.6561235,7.0372373 3.5829605,6.9431715 3.4679935,6.7863932 3.3635065,6.5564569 3.2589885,6.336967 3.1753685,6.1383804 3.0812915,5.9606989 2.9872235,5.8143729 c -0.03136,-0.05226 -0.104545,-0.1672146 -0.219514,-0.2508297 0.261298,-0.1045197 0.522607,-0.2508618 0.763,-0.418093 0.324009,-0.2299419 0.627111,-0.5330565 0.89886,-0.877969 0.606211,-0.7525378 0.909311,-1.5677731 1.013831,-1.8813304 0.146325,-0.4389806 0.219498,-0.8570402 0.209045,-1.1810496 -0.031355,-0.52259512 -0.250834,-0.73165065 -0.428518,-0.82571762 -0.0627,-0.0313564 -0.156798,-0.065338 -0.275687,-0.0666442 -0.118892,-0.001314 -0.262588,0.0300686 -0.424592,0.12936273 -0.177684,0.10451851 -0.36582,0.29265513 -0.553955,0.55395286 C 3.1544445,2.1562169 2.0256525,4.4242718 1.5657695,5.8457315 1.3584895,6.4809449 1.1728355,7.15017 1.0302215,7.7826721 0.76408355,8.9272907 0.62591555,13.324231 2.3087945,10.48972 Z m 2.580654,-9.3996309 c 0.01053,0.052259 0.02093,0.1254351 0.02093,0.2404058 -0.01053,0.1672301 -0.04179,0.4389978 -0.167216,0.8257179 -0.313555,0.9197679 -0.982516,2.0380968 -1.94409,2.5711449 0.543502,-1.2437777 1.275141,-2.5920555 1.776831,-3.3027854 0.146329,-0.1985865 0.250838,-0.2926749 0.313548,-0.3344832 z m 2.752146,0.3763103 c -0.03135,0.1672302 -0.08363,0.397148 -0.188154,0.710705 -0.135875,0.4180766 -0.41806,0.8361368 -0.773424,1.1810493 -0.08362,0.083616 -0.177698,0.1568177 -0.271766,0.2299815 0.355365,-0.762989 0.752571,-1.4528527 1.097483,-1.9440921 z M 15.68494,4.8946282 c 0.09408,0 0.167223,0.020878 0.198582,0.041783 0.03136,0.020903 0.08361,0.1254383 0.05225,0.271765 -0.07317,0.3762691 -0.606194,0.8465851 -1.849971,1.1496902 0.09407,-0.1672302 0.198563,-0.3344598 0.33444,-0.5225945 0.449432,-0.6271143 0.815287,-0.8361204 1.045231,-0.9092845 0.08361,-0.020903 0.15676,-0.031358 0.219469,-0.031358 z m -3.715249,0.2372652 c 0.09416,-2.027e-4 0.185341,0.013878 0.274513,0.034455 0.188133,0.041808 0.33443,0.2508448 0.38669,0.5225943 0.07317,0.4703358 -0.14631,1.1810951 -1.034723,1.7350464 -0.470335,0.2926514 -0.804774,0.355331 -1.00336,0.355331 -0.177684,-0.010456 -0.271755,-0.062691 -0.292658,-0.073143 h -0.01053 c -0.07317,-0.052258 -0.156765,-0.083637 -0.250832,-0.073185 0.271747,-0.6793741 0.522561,-1.2019691 0.762957,-1.5991417 0.457271,-0.7185695 0.831613,-0.9012653 1.167877,-0.9019572 z M 2.2033435,6.2847233 c 0.501692,1.4841718 -0.010529,2.8324708 -0.188156,3.2296434 -0.593776,1.8812693 -0.560861,0.1179978 -0.449408,-0.6271399 0.135875,-0.7838921 0.355361,-1.7245419 0.637564,-2.6025035 z"
     id="rect830"
     inkscape:connector-curvature="0"
     sodipodi:nodetypes="scsccccssccccsccscccccccsccccsscscccsccccsccccccccccccccccccscccscsccccccccccccccccccccccccscccccccccccccccsccccscccccsccccccccccccccc" />
  <g
     id="flowRoot825"
     style="font-style:normal;font-weight:normal;font-size:40px;line-height:125%;font-family:sans-serif;letter-spacing:0px;word-spacing:0px;fill:#000000;fill-opacity:1;stroke:none;stroke-width:1px;stroke-linecap:butt;stroke-linejoin:miter;stroke-opacity:1"
     transform="matrix(0.26458333,0,0,0.26458333,-22.773973,-193.13821)" />
</svg>
