<?xml version="1.0" encoding="UTF-8" standalone="no"?>
<svg
   xmlns:dc="http://purl.org/dc/elements/1.1/"
   xmlns:cc="http://creativecommons.org/ns#"
   xmlns:rdf="http://www.w3.org/1999/02/22-rdf-syntax-ns#"
   xmlns:svg="http://www.w3.org/2000/svg"
   xmlns="http://www.w3.org/2000/svg"
   xmlns:sodipodi="http://sodipodi.sourceforge.net/DTD/sodipodi-0.dtd"
   xmlns:inkscape="http://www.inkscape.org/namespaces/inkscape"
   width="54px"
   height="54px"
   viewBox="0 0 54 54"
   version="1.1"
   id="svg13"
   sodipodi:docname="logo-mobile.svg"
   inkscape:version="0.92.3 (2405546, 2018-03-11)">
  <metadata
     id="metadata17">
    <rdf:RDF>
      <cc:Work
         rdf:about="">
        <dc:format>image/svg+xml</dc:format>
        <dc:type
           rdf:resource="http://purl.org/dc/dcmitype/StillImage" />
      </cc:Work>
    </rdf:RDF>
  </metadata>
  <sodipodi:namedview
     pagecolor="#ffffff"
     bordercolor="#666666"
     borderopacity="1"
     objecttolerance="10"
     gridtolerance="10"
     guidetolerance="10"
     inkscape:pageopacity="0"
     inkscape:pageshadow="2"
     inkscape:window-width="716"
     inkscape:window-height="480"
     id="namedview15"
     showgrid="false"
     inkscape:zoom="3.0903185"
     inkscape:cx="28.501371"
     inkscape:cy="14.145664"
     inkscape:window-x="1951"
     inkscape:window-y="130"
     inkscape:window-maximized="0"
     inkscape:current-layer="svg13" />
  <!-- Generator: Sketch 51.3 (57544) - http://www.bohemiancoding.com/sketch -->
  <title
     id="title2">logo-mobile</title>
  <desc
     id="desc4">Created with Sketch.</desc>
  <defs
     id="defs6" />
  <g
     transform="matrix(0.236844,0,0,0.236844,2.6733264,-5.1886763)"
     id="layer1">
    <path
       inkscape:connector-curvature="0"
       style="opacity:1;fill:#37abc8;fill-opacity:1;stroke:none;stroke-width:1.848189;stroke-linecap:round;stroke-linejoin:round;stroke-miterlimit:4;stroke-dasharray:none;stroke-dashoffset:0;stroke-opacity:1"
       d="M 401.42773,153.94922 C 198.66054,153.94937 34.2853,318.32461 34.285156,521.0918 c 0.07966,31.34149 4.172187,62.54378 12.177735,92.8457 6.386433,-28.32411 14.700191,-58.29274 23.982421,-86.73828 20.594109,-63.65454 71.142648,-165.22051 107.650388,-217.17383 8.42486,-11.7012 16.84983,-20.12616 24.80664,-24.80664 7.25475,-4.44646 13.68963,-5.85147 19.01368,-5.79297 5.32404,0.0585 9.53741,1.58023 12.3457,2.98438 7.95681,4.21243 17.7853,13.57416 19.18945,36.97656 0.46805,14.50948 -2.80866,33.23066 -9.36133,52.88867 -4.68048,14.04146 -18.25361,50.54857 -45.40039,84.24805 -12.16924,15.44557 -25.74246,29.01935 -40.25195,39.3164 -10.7651,7.4888 -22.46677,14.04217 -34.16797,18.72266 5.14853,3.74438 8.42594,8.89218 9.83008,11.23242 4.21243,6.55264 8.42554,14.50942 12.16992,23.40235 4.68048,9.829 9.35929,20.12578 14.50781,27.14648 3.27634,4.21243 7.48999,8.89327 11.23438,9.36133 2.80829,0.46805 7.48749,-1.40402 12.16797,-5.14844 8.42486,-5.61657 17.78693,-15.44489 28.08398,-29.48633 0.072,-0.0959 0.15309,-0.17951 0.22656,-0.27343 1.3085,-7.75014 2.82259,-15.77364 4.59961,-24.06641 8.42487,-41.18823 25.74232,-83.31166 38.84766,-111.39453 16.38168,-35.57163 36.03965,-70.67588 53.35742,-95.48242 8.42486,-11.7012 15.91413,-20.12492 22.4668,-25.27344 14.50948,-11.23315 25.27405,-8.42548 30.89062,-5.61719 4.21243,2.34024 9.83039,7.0206 12.63868,16.84961 1.40414,5.14853 1.87234,11.23389 1.40429,18.72266 -0.93609,12.63729 -4.6817,29.48581 -11.23437,48.67578 -7.95682,23.87043 -22.93449,47.27294 -43.06055,66.46289 -16.84972,16.38168 -36.50785,28.08265 -54.76172,33.69922 -7.95681,20.59411 -14.04147,41.18892 -18.2539,60.3789 -3.74439,17.31776 -6.08414,33.6988 -7.48829,47.74024 10.29706,-22.93436 23.40263,-50.08001 37.91211,-73.48242 9.36096,-14.5095 18.25358,-25.7431 27.14649,-34.16797 12.16924,-11.23314 24.80606,-16.84961 37.44336,-16.84961 16.84972,0 30.89239,5.14825 41.18945,15.44531 9.829,9.36094 14.97656,21.99832 14.97656,36.50781 0,17.78582 -8.42409,35.10363 -22.93359,48.20899 -8.42487,7.48875 -21.99894,15.91382 -42.125,19.6582 3.74438,14.04144 7.48874,23.40227 11.70117,28.55078 3.74439,3.74438 7.95771,6.08399 20.12695,6.08399 8.89292,0 22.46499,-11.70138 35.57032,-31.35938 12.06305,-17.63065 19.50657,-35.21039 20.09179,-35.97266 4.89894,-25.81899 9.62715,-53.93157 13.77735,-83.84765 0.93611,-9.36095 9.36098,-15.44584 18.2539,-14.50977 9.36095,1.40413 15.9139,9.82973 14.50977,18.72266 -1.87219,14.97751 -4.21375,29.01907 -6.08594,43.06055 11.70119,-16.84974 24.33873,-29.01906 37.91211,-36.50782 16.38168,-8.89292 35.10372,-11.23322 54.76172,-6.55273 10.76511,2.34024 21.06203,8.89292 28.55078,18.25391 7.0207,8.42485 11.70077,19.65887 14.04102,31.82812 2.8083,18.72193 -0.46718,38.37963 -9.82813,57.10156 -10.29706,21.06214 -27.61589,39.31542 -51.48633,54.29297 -24.33849,15.44557 -46.8031,22.46594 -67.86523,20.59375 -16.84974,-0.93611 -26.2118,-7.95716 -28.08399,-9.36133 -0.46804,-0.46802 -1.40307,-0.93498 -1.87109,-1.87109 -2.8083,8.89293 -6.08497,17.7855 -9.36133,27.14648 -0.46802,2.80827 -1.40499,5.14873 -1.87304,7.95704 -13.57338,49.14503 -23.86984,77.22868 -24.33789,78.63281 -2.80827,6.55268 -8.89264,10.76367 -15.44532,10.76367 -1.87219,0 -3.745,-0.46749 -5.61718,-0.93555 -8.42488,-2.8083 -13.10587,-11.70082 -10.76563,-20.59375 9.36094,-31.35919 17.78607,-59.91024 26.21094,-84.71679 1.99763,-7.591 4.1108,-15.91446 6.28711,-24.81836 -12.42033,10.58111 -24.9636,15.92578 -37.34571,15.92578 -14.97753,0 -31.82825,-2.34151 -44.93359,-17.78711 -10.29705,-11.70119 -17.31647,-30.42202 -23.86914,-61.78125 -0.93609,-5.14851 0.4678,-9.82858 3.74414,-14.04102 2.80829,-3.74438 7.48819,-6.08593 12.63672,-6.08593 21.53021,-10e-6 34.16803,-7.02085 40.7207,-13.10547 7.48877,-6.55265 11.70117,-14.97678 11.70117,-22.9336 0,-12.16924 -8.42606,-18.72265 -22.93554,-18.72265 -3.27634,0 -15.44566,2.8089 -36.50782,35.57226 -14.97752,23.87044 -28.54935,53.35739 -39.31445,76.75977 -5.14853,11.23317 -9.36109,20.59449 -13.10547,27.61523 -1.87219,4.21244 -3.74499,7.48788 -5.61718,9.82813 -4.68048,6.08462 -10.29694,9.36133 -16.84961,9.36133 -6.55268,0 -12.63718,-2.80723 -16.84961,-8.42383 -3.75344,-4.58752 -8.60877,-13.30371 -8.96289,-36 -13.47751,10.60461 -26.12213,15.0726 -38.45703,14 -9.82901,-0.93608 -18.72092,-5.61546 -26.67774,-13.57227 0,11.23317 -0.9357,22.46609 -2.33984,33.69922 -4.68048,33.23142 -16.382,66.46302 -32.76368,91.26953 -1.00998,1.58712 -2.09944,3.20651 -3.23437,4.83008 68.8476,95.92885 179.63145,152.8903 297.70898,153.07227 165.22037,-0.18601 309.96437,-110.71066 353.65821,-270.04883 -5.68115,4.91135 -11.76913,9.38714 -18.24219,13.38867 -20.59412,13.10536 -44.93396,20.59375 -65.99609,20.59375 -21.53023,0 -51.48452,-9.36085 -64.58985,-35.10352 -7.02073,-13.57338 -8.42532,-29.48636 -4.21289,-47.74023 4.21244,-18.25387 14.50898,-39.31694 30.89063,-61.7832 20.59411,-28.55093 42.12553,-46.33673 64.59179,-53.35743 7.10849,-2.10621 13.5505,-2.87866 19.23243,-2.83984 14.52048,0.0992 24.07582,5.50106 27.10351,7.51953 7.0207,4.68045 12.17025,11.70209 14.97852,20.12695 3.27632,7.95682 3.74328,17.31679 1.87109,26.67774 -4.68045,22.4663 -27.61506,62.25078 -127.77734,80.97265 -0.46802,5.61661 0.46834,10.76609 2.80859,14.97852 6.08462,11.70119 22.46621,17.31641 35.10352,17.31641 25.74262,0 71.61165,-18.25217 92.67382,-67.86524 5.14474,-12.9194 4.88104,-20.49862 5.05079,-29.97851 -7e-5,-97.37258 -38.68134,-190.75699 -107.53434,-259.60962 -68.853,-68.85264 -162.23762,-107.53341 -259.6102,-107.53296 z"
       transform="scale(0.26458333)"
       id="path828" />
    <path
       inkscape:connector-curvature="0"
       style="opacity:1;fill:#37abc8;fill-opacity:1;stroke:none;stroke-width:1.848189;stroke-linecap:round;stroke-linejoin:round;stroke-miterlimit:4;stroke-dasharray:none;stroke-dashoffset:0;stroke-opacity:1"
       d="m 219.2832,314.23633 c -2.80828,1.87219 -7.48834,6.0856 -14.04101,14.97851 -22.4663,31.82727 -55.22987,92.20462 -79.56836,147.90235 43.06041,-23.87048 73.01716,-73.95046 87.05859,-115.13867 5.61658,-17.31778 7.02023,-29.4878 7.48828,-36.97657 0,-5.14852 -0.46945,-8.42538 -0.9375,-10.76562 z"
       transform="scale(0.26458333)"
       id="path826" />
    <path
       inkscape:connector-curvature="0"
       style="opacity:1;fill:#37abc8;fill-opacity:1;stroke:none;stroke-width:1.848189;stroke-linecap:round;stroke-linejoin:round;stroke-miterlimit:4;stroke-dasharray:none;stroke-dashoffset:0;stroke-opacity:1"
       d="m 342.52734,331.08789 -6.08398,7.95508 c -15.44558,21.99825 -33.23287,52.8911 -49.14648,87.05859 4.21242,-3.27636 8.42553,-6.55445 12.16992,-10.29883 15.91363,-15.44556 28.55014,-34.16675 34.63476,-52.88867 4.68048,-14.04144 7.02164,-24.3374 8.42578,-31.82617 z"
       transform="scale(0.26458333)"
       id="path824" />
    <path
       inkscape:connector-curvature="0"
       style="opacity:1;fill:#37abc8;fill-opacity:1;stroke:none;stroke-width:1.848189;stroke-linecap:round;stroke-linejoin:round;stroke-miterlimit:4;stroke-dasharray:none;stroke-dashoffset:0;stroke-opacity:1"
       d="m 716.7168,484.60742 c -2.80831,0 -6.08375,0.46822 -9.82813,1.4043 -10.29706,3.27636 -26.68058,12.63588 -46.80664,40.71875 -6.08462,8.42487 -10.76413,15.91359 -14.97656,23.40234 55.69772,-13.57338 79.56743,-34.63463 82.84375,-51.48437 1.40417,-6.55268 -0.93572,-11.23381 -2.33984,-12.16992 -1.40418,-0.93612 -4.68015,-1.8711 -8.89258,-1.8711 z"
       transform="scale(0.26458333)"
       id="path822" />
    <path
       inkscape:connector-curvature="0"
       style="opacity:1;fill:#37abc8;fill-opacity:1;stroke:none;stroke-width:1.848189;stroke-linecap:round;stroke-linejoin:round;stroke-miterlimit:4;stroke-dasharray:none;stroke-dashoffset:0;stroke-opacity:1"
       d="m 536.34375,495.23242 c -15.05822,0.0311 -31.82173,8.21232 -52.29883,40.39063 -10.76511,17.78581 -21.99677,41.18821 -34.16601,71.61133 4.21243,-0.46806 7.9561,0.93709 11.23242,3.27734 h 0.46875 c 0.93607,0.46802 5.14865,2.80733 13.10547,3.27539 8.89292,0 23.86946,-2.80679 44.93164,-15.91211 39.78406,-24.80655 49.61229,-56.63509 46.33593,-77.69727 -2.34023,-12.16924 -8.89153,-21.53015 -17.3164,-23.40234 -3.99304,-0.92147 -8.07667,-1.55167 -12.29297,-1.54297 z"
       transform="scale(0.26458333)"
       id="path820" />
    <path
       inkscape:connector-curvature="0"
       style="opacity:1;fill:#37abc8;fill-opacity:1;stroke:none;stroke-width:1.848189;stroke-linecap:round;stroke-linejoin:round;stroke-miterlimit:4;stroke-dasharray:none;stroke-dashoffset:0;stroke-opacity:1"
       d="m 98.996094,546.85742 c -12.637293,39.31605 -22.466158,81.4394 -28.550782,116.54297 -0.639232,4.26155 -1.188547,8.24326 -1.677734,12.02149 4.593338,9.87376 9.623702,19.53826 15.076172,28.96484 2.293941,-4.03696 4.546189,-8.35989 6.726562,-12.90234 7.956817,-17.78582 30.892088,-78.16415 8.425782,-144.62696 z"
       transform="scale(0.26458333)"
       id="path815" />
    <flowRoot
       transform="scale(0.26458333)"
       style="font-style:normal;font-weight:normal;font-size:40px;line-height:125%;font-family:sans-serif;letter-spacing:0px;word-spacing:0px;fill:#000000;fill-opacity:1;stroke:none;stroke-width:1px;stroke-linecap:butt;stroke-linejoin:miter;stroke-opacity:1"
       id="flowRoot825"
       xml:space="preserve"><flowRegion
         id="flowRegion827"><rect
           y="431.09113"
           x="-1791.4286"
           height="165.71428"
           width="711.42859"
           id="rect829" /></flowRegion><flowPara
         id="flowPara831" /></flowRoot>  </g>
</svg>
