<?xml version="1.0" encoding="UTF-8" standalone="no"?>
<svg
   xmlns:dc="http://purl.org/dc/elements/1.1/"
   xmlns:cc="http://creativecommons.org/ns#"
   xmlns:rdf="http://www.w3.org/1999/02/22-rdf-syntax-ns#"
   xmlns:svg="http://www.w3.org/2000/svg"
   xmlns="http://www.w3.org/2000/svg"
   xmlns:sodipodi="http://sodipodi.sourceforge.net/DTD/sodipodi-0.dtd"
   xmlns:inkscape="http://www.inkscape.org/namespaces/inkscape"
   id="svg8"
   version="1.1"
   viewBox="0 0 193.0316 131.6749"
   height="131.6749mm"
   width="193.0316mm"
   sodipodi:docname="logo.svg"
   inkscape:version="0.92.3 (2405546, 2018-03-11)">
  <sodipodi:namedview
     pagecolor="#ffffff"
     bordercolor="#666666"
     borderopacity="1"
     objecttolerance="10"
     gridtolerance="10"
     guidetolerance="10"
     inkscape:pageopacity="0"
     inkscape:pageshadow="2"
     inkscape:window-width="1920"
     inkscape:window-height="1017"
     id="namedview11"
     showgrid="false"
     fit-margin-top="0"
     fit-margin-left="0"
     fit-margin-right="0"
     fit-margin-bottom="0"
     inkscape:zoom="0.45313028"
     inkscape:cx="46.039768"
     inkscape:cy="293.83789"
     inkscape:window-x="1912"
     inkscape:window-y="-8"
     inkscape:window-maximized="1"
     inkscape:current-layer="svg8" />
  <defs
     id="defs2" />
  <metadata
     id="metadata5">
    <rdf:RDF>
      <cc:Work
         rdf:about="">
        <dc:format>image/svg+xml</dc:format>
        <dc:type
           rdf:resource="http://purl.org/dc/dcmitype/StillImage" />
        <dc:title></dc:title>
      </cc:Work>
    </rdf:RDF>
  </metadata>
  <path
     style="fill:#37abc8;fill-opacity:1;stroke:none;stroke-width:16.60000038;stroke-linejoin:miter;stroke-miterlimit:4;stroke-dasharray:none;stroke-opacity:1;paint-order:markers stroke fill"
     d="m 191.37618,67.371723 c -2.37182,0.8171 -2.09178,1.08314 -3.453,4.50139 -5.5727,13.1268 -17.70888,17.95602 -24.51995,17.95602 -3.34362,0 -7.67793,-1.4857 -9.2878,-4.58164 -0.61921,-1.11454 -0.86694,-2.477 -0.74311,-3.96306 26.50127,-4.9535 32.56938,-15.47981 33.80775,-21.424018 0.49535,-2.476751 0.3718,-4.953243 -0.49506,-7.058485 -0.74302,-2.229075 -2.1055,-4.086887 -3.96306,-5.325256 -0.80108,-0.534054 -3.32926,-1.963293 -7.17114,-1.989542 -1.50334,-0.01027 -3.20779,0.194106 -5.08858,0.751374 -5.9442,1.85756 -11.64105,6.563387 -17.08991,14.117484 -4.33431,5.944203 -7.0586,11.517143 -8.17315,16.346813 -1.11454,4.82967 -0.7429,9.03997 1.11466,12.63126 3.46746,6.81109 11.39286,9.28781 17.0894,9.28781 5.57269,0 12.01261,-1.9813 17.46147,-5.44876 1.71266,-1.05874 3.32344,-2.24296 4.82657,-3.54242 7.41495,-5.41365 9.01735,-23.407 5.68491,-22.25897 z M 17.054539,120.58074 c 0.300284,-0.42957 0.588538,-0.85804 0.855762,-1.27796 4.33432,-6.56339 7.430345,-15.35592 8.668722,-24.148397 0.371512,-2.9721 0.619084,-5.94414 0.619084,-8.91625 2.105242,2.10524 4.457892,3.34332 7.058484,3.591 3.263608,0.28379 6.609167,-0.89837 10.175089,-3.70417 0.09369,6.00506 1.378336,8.31122 2.371431,9.525 1.114539,1.48606 2.724399,2.2288 4.458126,2.2288 1.73373,0 3.219749,-0.86696 4.458126,-2.47685 0.495353,-0.61919 0.990865,-1.48581 1.486215,-2.60036 0.990701,-1.85757 2.105274,-4.33442 3.467489,-7.30653 2.848266,-6.19188 6.439146,-13.99363 10.401949,-20.30935 5.572696,-8.668644 8.792493,-9.411832 9.659358,-9.411832 3.838969,2e-6 6.068364,1.733926 6.068364,4.953704 0,2.105242 -1.114531,4.334128 -3.095934,6.067848 -1.733728,1.60989 -5.077487,3.46749 -10.774019,3.46749 -1.362215,0 -2.600439,0.61953 -3.343466,1.61023 -0.866865,1.11455 -1.238311,2.35281 -0.990637,3.71502 1.733727,8.29713 3.590949,13.25035 6.315377,16.34629 3.467455,4.08665 7.925874,4.70618 11.888679,4.70618 3.2761,0 6.594841,-1.41411 9.88105,-4.2137 -0.575812,2.35582 -1.134922,4.55807 -1.663462,6.56652 -2.22908,6.563407 -4.458232,14.117547 -6.934978,22.414657 -0.619188,2.35293 0.619321,4.70573 2.848404,5.44876 0.495348,0.12384 0.990865,0.24753 1.486215,0.24753 1.73373,0 3.34355,-1.11416 4.086572,-2.84789 0.12384,-0.37151 2.848114,-7.80197 6.439401,-20.80493 0.12384,-0.74303 0.37174,-1.36228 0.49557,-2.1053 0.86687,-2.476757 1.73383,-4.829577 2.47686,-7.182497 0.12383,0.24767 0.37122,0.37122 0.49505,0.49505 0.49536,0.37152 2.97239,2.22918 7.43056,2.47686 5.57268,0.49535 11.51646,-1.36213 17.95601,-5.44877 6.31573,-3.96281 10.89799,-8.79232 13.62243,-14.36501 2.47674,-4.95351 3.34338,-10.15461 2.60035,-15.108123 -0.61919,-3.219781 -1.85746,-6.192118 -3.71502,-8.421193 -1.9814,-2.476762 -4.70579,-4.21049 -7.55406,-4.829678 -5.20118,-1.23838 -10.15472,-0.619175 -14.48903,1.733743 -3.5913,1.981401 -6.93498,5.201201 -10.03092,9.659358 0.49535,-3.715139 1.11489,-7.430302 1.61024,-11.393101 0.37151,-2.352921 -1.36229,-4.582195 -3.83904,-4.953704 -2.35292,-0.247669 -4.582,1.362292 -4.82968,3.839043 -1.09808,7.915297 -2.34908,15.353412 -3.64526,22.184695 -0.15484,0.20168 -2.124267,4.85299 -5.31595,9.51776 -3.46745,5.20118 -7.058393,8.29717 -9.411312,8.29717 -3.219778,0 -4.334552,-0.61902 -5.325255,-1.60972 -1.114539,-1.36221 -2.105237,-3.83893 -3.095935,-7.55406 5.32502,-0.9907 8.916493,-3.21983 11.145573,-5.20123 3.838972,-3.46746 6.067846,-8.04947 6.067846,-12.755298 0,-3.83897 -1.361959,-7.18261 -3.962548,-9.659359 -2.724431,-2.72443 -6.43989,-4.086571 -10.898045,-4.086571 -3.343619,0 -6.687111,1.486024 -9.906887,4.458126 -2.352918,2.229077 -4.705755,5.201301 -7.182509,9.040273 -3.838966,6.191889 -7.306482,13.374179 -10.030912,19.442229 0.371514,-3.71513 0.99057,-8.04928 1.981274,-12.63127 1.114538,-5.077356 2.724441,-10.5264 4.82968,-15.975256 4.82967,-1.486053 10.030884,-4.581932 14.489039,-8.916252 5.32502,-5.077341 9.287862,-11.269255 11.393101,-17.584973 1.73373,-5.077347 2.724756,-9.535184 2.97243,-12.878803 0.123838,-1.9814012 -4.2e-5,-3.5914862 -0.371554,-4.9537022 -0.743027,-2.600592 -2.229443,-3.838937 -3.343982,-4.458126 -1.486051,-0.743026 -4.334179,-1.485892 -8.173143,1.486215 -1.73373,1.36221 -3.715264,3.590989 -5.944341,6.6869292 -4.581994,6.563397 -9.783168,15.851399 -14.117485,25.26306 -3.467454,7.430257 -8.049363,18.575415 -10.278443,29.473138 -0.47017,2.19413 -0.870773,4.31701 -1.21698,6.36757 -0.01942,0.0248 -0.04089,0.0469 -0.05994,0.0723 -2.724428,3.71515 -5.201479,6.31555 -7.430556,7.8016 -1.238377,0.99071 -2.476415,1.48603 -3.219441,1.36219 -0.990703,-0.12384 -2.105563,-1.36232 -2.972428,-2.47685 -1.362213,-1.85756 -2.600149,-4.58192 -3.838526,-7.18251 -0.9907,-2.35292 -2.105419,-4.45815 -3.219958,-6.19187 -0.371512,-0.61919 -1.23866,-1.98121 -2.600875,-2.971913 3.095943,-1.23838 6.192009,-2.972293 9.040275,-4.953704 3.83897,-2.724428 7.430218,-6.315827 10.649996,-10.402465 7.182586,-8.916321 10.77381,-18.575494 12.012187,-22.29063 1.733727,-5.201182 2.60069,-10.154494 2.476852,-13.993461 C 56.299733,4.3815748 53.699276,1.9046138 51.594039,0.79007485 50.85101,0.41856085 49.736222,0.01594185 48.32757,4.6084998e-4 46.918915,-0.01501915 45.216356,0.35672485 43.29687,1.5331838 41.19163,2.7715608 38.962524,5.0006648 36.733446,8.0966078 27.074107,21.842591 13.699804,48.715257 8.2509464,65.557183 5.7950233,73.083403 3.5953409,81.012603 1.9055974,88.506693 -1.2476944,102.06852 -2.8847443,154.16494 17.054543,120.5807 Z M 47.630968,9.2107918 c 0.123839,0.619186 0.248047,1.4861922 0.248047,2.8484042 -0.123838,1.981404 -0.49522,5.201386 -1.981274,9.783382 -3.715128,10.897714 -11.641187,24.148045 -23.034254,30.463776 6.439559,-14.736691 15.108255,-30.711532 21.052461,-39.132497 1.733728,-2.352916 2.971996,-3.4677142 3.71502,-3.9630652 z m 32.608347,4.4586432 c -0.371512,1.981403 -0.990944,4.705545 -2.229321,8.420674 -1.60989,4.953508 -4.953302,9.906823 -9.163784,13.993461 -0.990703,0.9907 -2.105421,1.858028 -3.219958,2.724899 4.210476,-9.040149 8.9167,-17.213882 13.003343,-23.034253 z m 95.300125,40.61871 c 1.11454,0 1.98131,0.247377 2.35283,0.495059 0.37151,0.247679 0.9906,1.486231 0.61908,3.21996 -0.86686,4.458158 -7.18238,10.030619 -21.91907,13.621909 1.11454,-1.9814 2.35265,-3.96279 3.96255,-6.19187 5.32502,-7.430261 9.65982,-9.906634 12.38425,-10.773504 0.9907,-0.247671 1.85733,-0.371554 2.60036,-0.371554 z m -44.01954,2.811197 c 1.11556,-0.0024 2.19603,0.164439 3.25252,0.408245 2.22908,0.49535 3.96244,2.972093 4.58163,6.191869 0.86687,5.572697 -1.73351,13.994007 -12.25972,20.557407 -5.5727,3.46743 -9.53524,4.21008 -11.88816,4.21008 -2.10524,-0.12385 -3.21982,-0.74279 -3.46749,-0.86662 h -0.12402 c -0.86686,-0.61919 -1.85738,-0.99097 -2.97191,-0.86713 3.21977,-8.04945 6.19148,-14.24133 9.03976,-18.94716 5.4179,-8.51385 9.85324,-10.678491 13.83739,-10.686691 z M 15.805003,70.758453 c 5.94421,17.58496 -0.12408,33.560057 -2.229321,38.265887 -7.0352579,22.28991 -6.6452761,1.39808 -5.3247396,-7.43056 1.60989,-9.287817 4.2104436,-20.432947 7.5540606,-30.835327 z"
     id="rect830"
     inkscape:connector-curvature="0"
     sodipodi:nodetypes="scsccccssccccsccscccccccsccccsscscccsccccsccccccccccccccccccscccscsccccccccccccccccccccccccscccccccccccccccsccccscccccsccccccccccccccc" />
  <g
     id="flowRoot825"
     style="font-style:normal;font-weight:normal;font-size:40px;line-height:125%;font-family:sans-serif;letter-spacing:0px;word-spacing:0px;fill:#000000;fill-opacity:1;stroke:none;stroke-width:1px;stroke-linecap:butt;stroke-linejoin:miter;stroke-opacity:1"
     transform="matrix(0.26458333,0,0,0.26458333,-22.773973,-73.10498)" />
</svg>
